<svg width="26" height="26" viewBox="0 0 26 26" fill="none" xmlns="http://www.w3.org/2000/svg">
<g opacity="0.5">
<path d="M21.7417 0.813114L21.7424 0.813035C22.1251 0.769611 22.4922 0.835302 22.842 1.00476C22.958 1.06065 23.0321 1.10179 23.1798 1.23415C23.3171 1.35711 23.5283 1.56781 23.9234 1.96297C23.9234 1.96299 23.9234 1.96301 23.9235 1.96302L24.7452 2.78232L24.7692 2.80627L24.784 2.83679L24.8962 3.0685L24.8965 3.06912C25.1884 3.67717 25.1642 4.32303 24.8255 4.90288L24.8255 4.90288L24.8248 4.90396C24.775 4.98801 24.7003 5.08137 24.5812 5.21222C24.461 5.34433 24.2876 5.52322 24.0339 5.77933L24.0337 5.77949L23.3728 6.44534L23.2313 6.5879L23.0893 6.44577L21.2723 4.62635L21.2722 4.62626L19.4553 2.80928L19.3141 2.66813L19.455 2.52671L20.0891 1.89012L20.0894 1.88985C20.2831 1.69617 20.4592 1.52496 20.6001 1.39335C20.7347 1.2676 20.8502 1.16549 20.9174 1.12102C21.1459 0.967043 21.4806 0.843668 21.7417 0.813114Z" fill="#B0BCD6" stroke="#B0BCD6" stroke-width="0.4"/>
<path d="M2.31133 2.56006L2.31331 2.55967C2.37067 2.54819 2.47506 2.54258 2.65642 2.53812C2.84607 2.53346 3.13832 2.53002 3.58705 2.52743C4.48496 2.52224 6.01483 2.52041 8.61586 2.5192L14.7061 2.51676L14.9062 2.51668V2.71676V3.54602V4.37529V4.57529H14.7062H8.6818H2.85741V13.8143V23.0533H12.0964H21.3355V17.2655V11.2777V11.0777H21.5355H22.4013H23.2672H23.4673L23.4672 11.2779L23.4623 17.4047V17.4048L23.455 23.5341L23.4549 23.5639L23.4462 23.5925L23.3901 23.7754L23.3899 23.776C23.1851 24.4362 22.7213 24.9029 22.0579 25.1078L22.0575 25.108L21.8746 25.1641L21.846 25.1728L21.8161 25.1729L12.2673 25.1802C8.87829 25.1826 6.47622 25.1826 4.90306 25.1796C4.11654 25.178 3.53686 25.1758 3.1445 25.1726C2.9484 25.1711 2.79853 25.1693 2.69282 25.1673C2.59482 25.1654 2.51969 25.1633 2.48708 25.1589L2.51351 24.9607L2.48783 25.159C1.73283 25.0612 1.13634 24.5668 0.88776 23.8427L0.887758 23.8427L0.887426 23.8417L0.821573 23.6466L0.811096 23.6155L0.811071 23.5828L0.803754 13.9364L0.803754 13.9364C0.803174 13.0775 0.802532 12.2929 0.801946 11.5759C0.798835 7.77235 0.797281 5.87277 0.814762 4.89489C0.82504 4.31989 0.841816 4.0458 0.873551 3.88837C0.891183 3.80089 0.91446 3.74278 0.944343 3.68922C0.959236 3.66253 0.968287 3.64814 0.97585 3.63612C0.985484 3.62081 0.992703 3.60934 1.00651 3.58115C1.05457 3.48003 1.0967 3.4008 1.154 3.32216C1.21063 3.24443 1.27755 3.17352 1.36819 3.08412L1.3682 3.08411C1.45754 2.99601 1.52901 2.93003 1.6065 2.87364C1.68479 2.81667 1.76342 2.77366 1.86379 2.72532C2.00046 2.65593 2.19865 2.58379 2.31133 2.56006Z" fill="#B0BCD6" stroke="#B0BCD6" stroke-width="0.4"/>
<path d="M9.77166 12.4924L9.63024 12.351L9.77166 12.2095L13.979 8.00222C15.1364 6.84483 16.1908 5.79286 16.9577 5.03018C17.3412 4.64887 17.6529 4.33973 17.8698 4.12583C17.9782 4.01894 18.0632 3.93553 18.1217 3.8787C18.1508 3.8504 18.174 3.8281 18.1904 3.81263C18.1984 3.80508 18.206 3.79806 18.2122 3.79249C18.215 3.78999 18.2197 3.7859 18.2249 3.78171C18.2271 3.77996 18.2327 3.77545 18.2402 3.77048C18.2436 3.76819 18.2514 3.76305 18.262 3.75773L18.2623 3.75758C18.2662 3.75554 18.3026 3.73633 18.3521 3.73633C18.397 3.73633 18.4301 3.75193 18.4364 3.75486L18.4369 3.75512C18.4482 3.76036 18.4566 3.76555 18.4606 3.76811C18.4691 3.7735 18.4757 3.77855 18.4786 3.78082C18.4853 3.786 18.4915 3.79138 18.496 3.79526C18.5055 3.80364 18.5175 3.81463 18.5308 3.82711C18.5579 3.85247 18.5961 3.88905 18.6437 3.93508C18.739 4.0274 18.8746 4.16047 19.0405 4.32417C19.3723 4.65171 19.8263 5.10326 20.3228 5.59978L22.1277 7.40466L22.2691 7.54608L22.1277 7.6875L17.9082 11.907L13.6887 16.1265L13.5472 16.268L13.4058 16.1265L11.5887 14.3095L9.77166 12.4924Z" fill="#B0BCD6" stroke="#B0BCD6" stroke-width="0.4"/>
<path d="M7.53022 19.0122L7.53033 19.0121C9.28238 18.4509 10.1625 18.1691 10.6235 18.0275C11.0667 17.8913 11.1034 17.8918 11.1385 17.8923C11.1406 17.8924 11.1427 17.8924 11.1449 17.8924C11.5029 17.8924 11.9268 17.7579 12.2128 17.5524L12.213 17.5523C12.2384 17.534 12.2679 17.5148 12.2939 17.4995C12.3068 17.4919 12.3175 17.4861 12.3253 17.4822C12.3282 17.4807 12.3301 17.4798 12.3312 17.4793C12.3717 17.4655 12.4326 17.4305 12.4608 17.3538C12.4857 17.286 12.468 17.228 12.4605 17.2068C12.4448 17.1628 12.416 17.1249 12.3984 17.1025C12.3555 17.0478 12.2792 16.9643 12.1572 16.8372C11.91 16.5795 11.4503 16.1174 10.6254 15.2924C10.1191 14.7862 9.65733 14.3262 9.32077 13.9927C9.15253 13.826 9.01536 13.6907 8.91952 13.5969C8.87168 13.5501 8.83368 13.5132 8.8071 13.4878C8.79397 13.4752 8.78273 13.4646 8.77416 13.4568C8.77015 13.4531 8.76506 13.4485 8.75996 13.4442C8.75781 13.4424 8.75278 13.4382 8.74645 13.4336C8.74366 13.4316 8.73668 13.4266 8.72727 13.4212C8.72266 13.4186 8.71379 13.4138 8.70204 13.4091C8.69403 13.4059 8.66589 13.3948 8.62786 13.3948C8.54574 13.3948 8.48323 13.4392 8.44872 13.4894C8.43096 13.5153 8.42036 13.5422 8.41451 13.5675C8.41099 13.5741 8.40622 13.5827 8.40007 13.5933C8.38092 13.6265 8.35341 13.671 8.32232 13.7182C8.32214 13.7185 8.32197 13.7187 8.3218 13.719L7.53022 19.0122ZM7.53022 19.0122C7.37983 19.0602 7.24051 19.1024 7.13707 19.1317C7.08567 19.1463 7.04142 19.1583 7.00849 19.1663C6.9926 19.1701 6.976 19.1739 6.96133 19.1764C6.9548 19.1776 6.94294 19.1795 6.92942 19.1803C6.92332 19.1807 6.90951 19.1813 6.89248 19.1794C6.88391 19.1785 6.86901 19.1763 6.85133 19.1705C6.83552 19.1653 6.80267 19.1525 6.7718 19.1216C6.72249 19.0723 6.71574 19.014 6.71481 19.006M7.53022 19.0122L6.71481 19.006M6.71481 19.006C6.71478 19.0057 6.71475 19.0055 6.71473 19.0053M6.71481 19.006L6.71473 19.0053M6.71473 19.0053C6.71255 18.9883 6.71307 18.9748 6.71334 18.9692M6.71473 19.0053L6.71334 18.9692M6.71334 18.9692C6.71396 18.9569 6.71559 18.947 6.7162 18.9434M6.71334 18.9692L6.7162 18.9434M6.7162 18.9434C6.71769 18.9346 6.71958 18.9265 6.72076 18.9216M6.7162 18.9434L6.72076 18.9216M6.72076 18.9216C6.72341 18.9106 6.72706 18.897 6.73112 18.8824M6.72076 18.9216L6.73112 18.8824M6.73112 18.8824C6.73945 18.8526 6.75183 18.8104 6.76757 18.7579M6.73112 18.8824L6.76757 18.7579M6.76757 18.7579C6.79916 18.6525 6.84552 18.5016 6.90306 18.3168M6.76757 18.7579L6.90306 18.3168M6.90306 18.3168C7.0182 17.9469 7.17873 17.4391 7.35689 16.8826L6.90306 18.3168Z" fill="#B0BCD6" stroke="#B0BCD6" stroke-width="0.4"/>
</g>
</svg>
