<svg width="232" height="175" viewBox="0 0 232 175" fill="none" xmlns="http://www.w3.org/2000/svg">
<path d="M0 12C0 5.37259 5.37258 0 12 0H220C226.627 0 232 5.37258 232 12V175H0V12Z" fill="#F8FAFF"/>
<path d="M88 49H122.024V68.7308C122.024 69.4635 122.179 70.352 122.721 71.1613C123.147 71.7977 123.78 72.5611 124.606 73.1836C125.435 73.8076 126.565 74.3659 127.927 74.3659H145.439V124C145.439 124.552 144.991 125 144.439 125H88C87.4477 125 87 124.552 87 124V50C87 49.4477 87.4477 49 88 49ZM145.099 70.3659H127.927C127.691 70.3659 127.387 70.2703 127.012 69.9881C126.638 69.7065 126.3 69.315 126.051 68.9443C126.049 68.9403 126.047 68.9328 126.044 68.9212C126.035 68.8862 126.024 68.8238 126.024 68.7308V49.9046C126.407 50.0392 126.773 50.1748 127.119 50.3034C127.319 50.3775 127.513 50.4493 127.7 50.5173C128.126 50.6722 128.425 50.8732 128.601 51.0711L143.921 68.248C144.532 69.1161 144.888 69.8156 145.099 70.3659Z" stroke="#6096FC" stroke-width="4"/>
<path d="M104.918 103.81C102.602 105.612 98.1995 109.679 99.1263 111.533C100.285 113.849 104.918 106.899 106.077 104.968C106.348 104.516 106.811 103.702 107.385 102.651M121.522 99.1762C119.205 98.7901 115.344 92.998 113.413 88.7504C111.483 84.5029 111.869 76.3939 113.8 76.0078C115.344 75.6989 114.443 84.6316 113.8 89.1366C112.322 93.2748 109.26 99.2231 107.385 102.651M121.522 99.1762C123.582 100.206 128.396 102.111 131.176 101.493C134.651 100.721 130.017 97.2455 121.522 99.1762ZM121.522 99.1762C117.761 99.5623 109.668 100.798 107.385 102.651" stroke="#8DB6FF" stroke-width="2"/>
<path d="M124 69.0709V51.0709C124 50.6709 126.5 52.071 128 52.5709L142 67.5709C143.6 69.1709 144 71.5709 144 72.5709H129C125.4 72.9709 124.167 70.4043 124 69.0709Z" fill="#D9E7FF" stroke="#6096FC" stroke-width="2"/>
</svg>
