<svg width="266" height="181" viewBox="0 0 266 181" fill="none" xmlns="http://www.w3.org/2000/svg">
<rect width="266" height="181" rx="12" fill="#F8FAFF"/>
<path d="M163.99 65.2366C164.816 66.1324 165.524 67.3482 166.115 68.8839C166.705 70.4196 167 71.8274 167 73.1071V128.393C167 129.673 166.587 130.76 165.76 131.656C164.934 132.552 163.931 133 162.75 133H103.25C102.069 133 101.066 132.552 100.24 131.656C99.4132 130.76 99 129.673 99 128.393V51.6071C99 50.3274 99.4132 49.2396 100.24 48.3437C101.066 47.4479 102.069 47 103.25 47H142.917C144.097 47 145.396 47.3199 146.812 47.9598C148.229 48.5997 149.351 49.3676 150.177 50.2634L163.99 65.2366ZM144.333 53.5268V71.5714H160.979C160.684 70.6436 160.359 69.9877 160.005 69.6038L146.148 54.5826C145.794 54.1987 145.189 53.8467 144.333 53.5268ZM161.333 126.857V77.7143H142.917C141.736 77.7143 140.733 77.2664 139.906 76.3705C139.08 75.4747 138.667 74.3869 138.667 73.1071V53.1429H104.667V126.857H161.333ZM138.578 98.3984C139.552 99.2303 140.792 100.126 142.297 101.086C144.038 100.862 145.765 100.75 147.477 100.75C151.815 100.75 154.427 101.534 155.312 103.102C155.785 103.805 155.814 104.637 155.401 105.597C155.401 105.629 155.386 105.661 155.357 105.693L155.268 105.789V105.837C155.091 107.053 154.043 107.661 152.125 107.661C150.708 107.661 149.011 107.341 147.034 106.701C145.056 106.061 143.138 105.213 141.279 104.157C134.756 104.925 128.971 106.253 123.924 108.141C119.409 116.523 115.838 120.714 113.211 120.714C112.768 120.714 112.355 120.602 111.971 120.378L110.909 119.802C110.879 119.77 110.791 119.69 110.643 119.562C110.348 119.243 110.26 118.667 110.378 117.835C110.643 116.555 111.47 115.091 112.857 113.444C114.244 111.796 116.192 110.252 118.701 108.812C119.114 108.525 119.453 108.621 119.719 109.1C119.778 109.164 119.807 109.228 119.807 109.292C121.342 106.573 122.921 103.422 124.544 99.8382C126.551 95.487 128.086 91.2958 129.148 87.2645C128.44 84.641 127.99 82.0895 127.798 79.6099C127.606 77.1304 127.702 75.0908 128.086 73.4911C128.411 72.2113 129.03 71.5714 129.945 71.5714H130.919C131.598 71.5714 132.115 71.8114 132.469 72.2913C133 72.9632 133.133 74.051 132.867 75.5547C132.808 75.7467 132.749 75.8746 132.69 75.9386C132.72 76.0346 132.734 76.1626 132.734 76.3225V77.7623C132.675 81.6975 132.469 84.769 132.115 86.9766C133.738 92.2236 135.892 96.0309 138.578 98.3984ZM113.078 118.123C114.613 117.355 116.635 114.827 119.143 110.54C117.638 111.82 116.347 113.164 115.27 114.571C114.192 115.979 113.462 117.163 113.078 118.123ZM130.698 73.971C130.255 75.3147 130.226 77.4263 130.609 80.3058C130.639 80.0818 130.742 79.378 130.919 78.1942C130.919 78.0982 131.023 77.4103 131.229 76.1306C131.259 76.0026 131.318 75.8746 131.406 75.7467C131.377 75.7147 131.362 75.6827 131.362 75.6507C131.332 75.5867 131.318 75.5387 131.318 75.5067C131.288 74.8028 131.096 74.2269 130.742 73.779C130.742 73.811 130.727 73.843 130.698 73.875V73.971ZM125.208 105.693C129.193 103.965 133.384 102.67 137.781 101.806C137.722 101.774 137.53 101.622 137.206 101.35C136.881 101.078 136.645 100.862 136.497 100.702C134.254 98.5584 132.38 95.7429 130.875 92.2556C130.078 95.0071 128.853 98.1585 127.201 101.71C126.315 103.501 125.651 104.829 125.208 105.693ZM153.807 104.925C153.099 104.157 151.033 103.773 147.609 103.773C149.852 104.669 151.682 105.117 153.099 105.117C153.512 105.117 153.778 105.101 153.896 105.069C153.896 105.037 153.866 104.989 153.807 104.925Z" fill="#6096FC"/>
</svg>
