<svg width="266" height="171" viewBox="0 0 515 600" fill="none" xmlns="http://www.w3.org/2000/svg">
<path d="M491.518 127.232C497.768 133.482 503.125 141.964 507.589 152.679C512.054 163.393 514.286 173.214 514.286 182.143V567.857C514.286 576.786 511.161 584.375 504.911 590.625C498.661 596.875 491.071 600 482.143 600H32.1429C23.2143 600 15.625 596.875 9.375 590.625C3.125 584.375 0 576.786 0 567.857V32.1429C0 23.2143 3.125 15.625 9.375 9.375C15.625 3.125 23.2143 0 32.1429 0H332.143C341.071 0 350.893 2.23214 361.607 6.69643C372.321 11.1607 380.804 16.5179 387.054 22.7679L491.518 127.232ZM342.857 45.5357V171.429H468.75C466.518 164.955 464.063 160.379 461.384 157.701L356.585 52.9018C353.906 50.2232 349.33 47.7679 342.857 45.5357ZM471.429 557.143V214.286H332.143C323.214 214.286 315.625 211.161 309.375 204.911C303.125 198.661 300 191.071 300 182.143V42.8571H42.8571V557.143H471.429ZM299.33 358.594C306.696 364.397 316.071 370.647 327.455 377.344C340.625 375.781 353.683 375 366.629 375C399.442 375 419.196 380.469 425.893 391.406C429.464 396.317 429.688 402.121 426.563 408.817C426.563 409.04 426.451 409.263 426.228 409.487L425.558 410.156V410.491C424.219 418.973 416.295 423.214 401.786 423.214C391.071 423.214 378.237 420.982 363.281 416.518C348.326 412.054 333.817 406.138 319.754 398.772C270.424 404.129 226.674 413.393 188.504 426.563C154.353 485.045 127.344 514.286 107.478 514.286C104.129 514.286 101.004 513.504 98.1027 511.942L90.067 507.924C89.8438 507.701 89.1741 507.143 88.058 506.25C85.8259 504.018 85.1563 500 86.0491 494.196C88.058 485.268 94.308 475.056 104.799 463.56C115.29 452.065 130.022 441.295 148.996 431.25C152.121 429.241 154.688 429.911 156.696 433.259C157.143 433.705 157.366 434.152 157.366 434.598C168.973 415.625 180.915 393.638 193.192 368.638C208.371 338.281 219.978 309.04 228.013 280.915C222.656 262.612 219.252 244.81 217.801 227.511C216.35 210.212 217.076 195.982 219.978 184.821C222.433 175.893 227.121 171.429 234.04 171.429H241.406C246.54 171.429 250.446 173.103 253.125 176.451C257.143 181.138 258.147 188.728 256.138 199.219C255.692 200.558 255.246 201.451 254.799 201.897C255.022 202.567 255.134 203.46 255.134 204.576V214.621C254.688 242.076 253.125 263.504 250.446 278.906C262.723 315.513 279.018 342.076 299.33 358.594ZM106.473 496.205C118.08 490.848 133.371 473.214 152.344 443.304C140.96 452.232 131.194 461.607 123.047 471.429C114.9 481.25 109.375 489.509 106.473 496.205ZM239.732 188.17C236.384 197.545 236.161 212.277 239.063 232.366C239.286 230.804 240.067 225.893 241.406 217.634C241.406 216.964 242.188 212.165 243.75 203.237C243.973 202.344 244.42 201.451 245.089 200.558C244.866 200.335 244.754 200.112 244.754 199.888C244.531 199.442 244.42 199.107 244.42 198.884C244.196 193.973 242.746 189.955 240.067 186.83C240.067 187.054 239.955 187.277 239.732 187.5V188.17ZM198.214 409.487C228.348 397.433 260.045 388.393 293.304 382.366C292.857 382.143 291.406 381.083 288.951 379.185C286.496 377.288 284.71 375.781 283.594 374.665C266.629 359.71 252.455 340.067 241.071 315.737C235.045 334.933 225.781 356.92 213.281 381.696C206.585 394.196 201.563 403.46 198.214 409.487ZM414.509 404.129C409.152 398.772 393.527 396.094 367.634 396.094C384.598 402.344 398.438 405.469 409.152 405.469C412.277 405.469 414.286 405.357 415.179 405.134C415.179 404.911 414.955 404.576 414.509 404.129Z" fill="#8DB6FF"/>
</svg>
